<?xml version="1.0" encoding="UTF-8"?>
<svg xmlns="http://www.w3.org/2000/svg" version="1.1" viewBox="0 0 495.852 558.582">
  <!-- Generator: Adobe Illustrator 28.6.0, SVG Export Plug-In . SVG Version: 1.2.0 Build 709)  -->
  <g>
    <g id="Layer_1">
      <path d="M246.4,381.14c-59.141-31.948-143.203-10.969-162.43,3.462l24.691-59.308,32.303-8.342-18.497,41.478c28.257-8.925,81.517-9.447,123.934,22.71Z" fill="#0e526e" fill-rule="evenodd"/>
      <path d="M259.164,439.801c-1.442-1.18-2.901-2.338-4.371-3.474-1.47,1.136-2.929,2.294-4.371,3.474-50.135-41.042-117.077-55.18-179.525-37.917,92.155-56.953,183.849,1.757,183.896,1.726,1.177.76,89.66-59.965,183.896-1.726-62.448-17.263-129.39-3.125-179.525,37.917h0Z" fill="#d8ac6b" fill-rule="evenodd"/>
      <g>
        <path d="M203.799,57.803c3.593-5.897,8.333-10.895,13.608-15.321,3.314-2.782,6.814-5.315,10.372-7.775,2.73-1.887,5.509-3.716,8.182-5.683.888-.654,2.547-1.818,3.315-2.698L254.793,0l15.517,26.327c.768.88,2.427,2.044,3.315,2.698,2.673,1.967,5.452,3.796,8.182,5.683,3.557,2.459,7.057,4.993,10.372,7.775,5.274,4.426,10.015,9.424,13.608,15.321,6.693-1.624,13.616-1.81,20.456-1.212,4.31.377,8.576,1.06,12.83,1.836,3.265.596,6.523,1.268,9.804,1.767,1.09.166,3.087.516,4.252.437l29.589-7.644-7.644,29.589c-.079,1.166.271,3.162.437,4.252.499,3.281,1.171,6.539,1.767,9.804.776,4.254,1.459,8.52,1.836,12.83.598,6.84.412,13.763-1.212,20.456,5.897,3.593,10.895,8.333,15.321,13.608,2.781,3.314,5.315,6.814,7.774,10.371,1.887,2.73,3.716,5.509,5.683,8.182.654.888,1.818,2.547,2.698,3.315l26.327,15.517-26.327,15.517c-.88.768-2.044,2.427-2.698,3.315-1.967,2.673-3.796,5.452-5.683,8.182-2.459,3.557-4.993,7.057-7.774,10.371-4.426,5.274-9.424,10.015-15.321,13.608,1.624,6.693,1.81,13.616,1.212,20.456-.377,4.31-1.06,8.576-1.836,12.83-.596,3.265-1.268,6.523-1.767,9.804-.166,1.09-.516,3.087-.437,4.252l7.644,29.589-29.589-7.644c-1.166-.079-3.162.271-4.252.437-3.281.499-6.539,1.171-9.804,1.767-4.254.777-8.52,1.459-12.83,1.836-6.84.598-13.763.413-20.456-1.212-3.593,5.897-8.333,10.895-13.608,15.321-3.314,2.781-6.814,5.316-10.371,7.774-2.73,1.887-5.509,3.715-8.182,5.683-.888.654-2.547,1.818-3.315,2.698l-15.517,26.327-15.517-26.327c-.768-.88-2.427-2.044-3.315-2.698-2.673-1.967-5.452-3.796-8.182-5.683-3.557-2.459-7.057-4.993-10.371-7.774-5.274-4.426-10.015-9.424-13.608-15.321-6.693,1.624-13.616,1.81-20.456,1.212-4.31-.377-8.576-1.06-12.83-1.836-3.265-.596-6.523-1.268-9.804-1.767-1.09-.166-3.087-.515-4.252-.437l-29.589,7.644,7.644-29.589c.079-1.166-.271-3.162-.437-4.252-.499-3.281-1.171-6.539-1.767-9.804-.777-4.254-1.459-8.52-1.836-12.83-.598-6.84-.412-13.763,1.212-20.456-5.897-3.593-10.895-8.333-15.321-13.608-2.781-3.314-5.316-6.814-7.774-10.371-1.887-2.73-3.715-5.509-5.683-8.182-.654-.888-1.818-2.547-2.698-3.315l-26.327-15.517,26.327-15.517c.88-.768,2.044-2.427,2.698-3.315,1.967-2.673,3.796-5.452,5.683-8.182,2.459-3.557,4.993-7.057,7.774-10.371,4.426-5.274,9.424-10.015,15.321-13.608-1.624-6.693-1.81-13.616-1.212-20.456.377-4.31,1.06-8.576,1.836-12.83.596-3.265,1.268-6.523,1.767-9.804.166-1.09.516-3.087.437-4.252l-7.644-29.589,29.589,7.644c1.166.079,3.162-.271,4.252-.437,3.281-.499,6.539-1.171,9.804-1.767,4.254-.777,8.52-1.459,12.83-1.836,6.84-.598,13.763-.413,20.456,1.212h0ZM209.981,72.725c.771-2.86,1.965-5.706,3.643-8.521,2.937-4.924,6.946-9.078,11.316-12.746,3.034-2.546,6.246-4.861,9.502-7.111,2.826-1.953,5.697-3.848,8.464-5.884,2.036-1.499,5.015-3.726,6.322-5.943l5.565-9.441,5.565,9.441c1.307,2.217,4.286,4.444,6.322,5.943,2.767,2.036,5.639,3.931,8.464,5.884,3.256,2.251,6.468,4.565,9.502,7.111,4.37,3.667,8.38,7.822,11.316,12.746,1.679,2.815,2.872,5.661,3.643,8.521,2.568-1.477,5.424-2.645,8.601-3.449,5.55-1.403,11.339-1.507,17.015-1.011,3.945.345,7.853.98,11.747,1.69,3.379.617,6.749,1.308,10.146,1.825,2.5.38,6.181.912,8.673.268l10.611-2.741-2.741,10.611c-.644,2.492-.112,6.173.268,8.673.516,3.397,1.208,6.767,1.825,10.146.711,3.894,1.345,7.802,1.69,11.747.496,5.676.392,11.465-1.011,17.015-.803,3.177-1.972,6.034-3.449,8.601,2.86.771,5.706,1.965,8.521,3.643,4.924,2.937,9.078,6.946,12.746,11.316,2.546,3.034,4.861,6.246,7.111,9.502,1.953,2.826,3.848,5.697,5.884,8.464,1.499,2.036,3.726,5.015,5.943,6.322l9.441,5.565-9.441,5.565c-2.217,1.307-4.444,4.286-5.943,6.322-2.036,2.767-3.931,5.639-5.884,8.464-2.251,3.256-4.565,6.468-7.111,9.502-3.667,4.37-7.822,8.38-12.746,11.316-2.815,1.679-5.661,2.872-8.521,3.643,1.477,2.568,2.646,5.424,3.449,8.601,1.403,5.55,1.507,11.339,1.011,17.015-.345,3.945-.98,7.853-1.69,11.747-.617,3.379-1.308,6.749-1.825,10.146-.38,2.5-.912,6.181-.268,8.673l2.741,10.611-10.611-2.741c-2.492-.644-6.173-.112-8.673.268-3.397.516-6.767,1.208-10.146,1.824-3.894.711-7.802,1.345-11.747,1.69-5.676.496-11.465.392-17.015-1.011-3.177-.803-6.034-1.972-8.601-3.449-.771,2.86-1.965,5.706-3.643,8.521-2.937,4.924-6.946,9.078-11.316,12.746-3.034,2.546-6.246,4.861-9.502,7.111-2.826,1.953-5.697,3.848-8.464,5.884-2.036,1.499-5.015,3.726-6.322,5.943l-5.565,9.441-5.565-9.441c-1.307-2.217-4.286-4.444-6.322-5.943-2.767-2.036-5.639-3.931-8.464-5.884-3.256-2.251-6.468-4.565-9.502-7.111-4.37-3.667-8.38-7.822-11.316-12.746-1.679-2.815-2.872-5.661-3.643-8.521-2.568,1.477-5.424,2.645-8.601,3.449-5.55,1.403-11.339,1.507-17.015,1.011-3.945-.345-7.853-.98-11.747-1.69-3.379-.617-6.749-1.308-10.146-1.824-2.5-.38-6.181-.912-8.673-.268l-10.611,2.741,2.741-10.611c.644-2.492.112-6.173-.268-8.673-.516-3.397-1.208-6.767-1.824-10.146-.711-3.894-1.345-7.802-1.69-11.747-.496-5.676-.392-11.465,1.011-17.015.803-3.177,1.972-6.034,3.449-8.601-2.86-.771-5.706-1.965-8.521-3.643-4.924-2.937-9.078-6.946-12.746-11.316-2.546-3.034-4.861-6.246-7.111-9.502-1.953-2.826-3.848-5.697-5.884-8.464-1.499-2.036-3.726-5.015-5.943-6.322l-9.441-5.565,9.441-5.565c2.217-1.307,4.444-4.286,5.943-6.322,2.036-2.767,3.931-5.639,5.884-8.464,2.251-3.256,4.565-6.468,7.111-9.502,3.667-4.37,7.822-8.38,12.746-11.316,2.815-1.679,5.661-2.872,8.521-3.643-1.477-2.568-2.645-5.424-3.449-8.601-1.403-5.55-1.507-11.339-1.011-17.015.345-3.945.98-7.853,1.69-11.747.617-3.379,1.308-6.749,1.824-10.146.38-2.5.912-6.181.268-8.673l-2.741-10.611,10.611,2.741c2.492.644,6.173.112,8.673-.268,3.397-.517,6.767-1.208,10.146-1.825,3.894-.711,7.802-1.345,11.747-1.69,5.676-.496,11.465-.392,17.015,1.011,3.177.803,6.034,1.972,8.601,3.449h0ZM198.774,157.708v16.466l-16.466-9.508c-4.69-2.708-10.735-5.509-15.913-2.421-2.28,1.36-4.307,3.481-6.002,5.501-3.457,4.119-6.319,8.784-9.462,13.166,3.143,4.382,6.005,9.046,9.462,13.166,1.696,2.02,3.723,4.142,6.002,5.501,5.178,3.088,11.223.287,15.913-2.421l16.466-9.508v16.466l11.642,11.643-18.365,4.92c-5.232,1.402-11.487,3.696-12.965,9.541-.651,2.575-.584,5.505-.354,8.134.468,5.357,1.743,10.679,2.619,16,5.321.876,10.643,2.151,16,2.619,2.63.23,5.559.297,8.134-.354,5.845-1.478,8.139-7.733,9.541-12.965l4.92-18.365,11.643,11.642h16.466l-9.508,16.466c-2.708,4.69-5.509,10.735-2.421,15.913,1.36,2.28,3.481,4.307,5.501,6.002,4.12,3.457,8.784,6.319,13.166,9.462,4.382-3.143,9.046-6.005,13.166-9.462,2.02-1.696,4.141-3.723,5.501-6.002,3.088-5.178.287-11.223-2.421-15.913l-9.508-16.466h16.466l11.643-11.642,4.92,18.365c1.402,5.232,3.695,11.487,9.541,12.965,2.575.651,5.505.584,8.134.354,5.357-.468,10.679-1.743,16-2.619.876-5.321,2.151-10.643,2.619-16,.23-2.63.297-5.559-.355-8.134-1.478-5.845-7.733-8.139-12.965-9.541l-18.365-4.92,11.642-11.643v-16.466l16.466,9.508c4.69,2.708,10.735,5.509,15.913,2.421,2.28-1.36,4.307-3.481,6.002-5.501,3.457-4.119,6.319-8.784,9.462-13.166-3.143-4.382-6.005-9.046-9.462-13.166-1.696-2.02-3.723-4.141-6.002-5.501-5.178-3.088-11.223-.287-15.913,2.421l-16.466,9.508v-16.466l-11.642-11.643,18.365-4.92c5.232-1.402,11.487-3.696,12.965-9.541.651-2.575.584-5.505.355-8.134-.468-5.357-1.743-10.679-2.619-16-5.321-.876-10.643-2.151-16-2.619-2.63-.23-5.559-.297-8.134.355-5.845,1.478-8.139,7.733-9.541,12.965l-4.92,18.365-11.643-11.642h-16.466l9.508-16.466c2.708-4.69,5.509-10.735,2.421-15.913-1.36-2.28-3.481-4.307-5.501-6.002-4.119-3.457-8.784-6.319-13.166-9.462-4.382,3.143-9.046,6.005-13.166,9.462-2.02,1.696-4.141,3.723-5.501,6.002-3.088,5.178-.287,11.223,2.421,15.913l9.508,16.466h-16.466l-11.643,11.642-4.92-18.365c-1.402-5.232-3.696-11.487-9.541-12.965-2.575-.651-5.505-.584-8.134-.355-5.357.468-10.679,1.743-16,2.619-.876,5.321-2.151,10.643-2.619,16-.23,2.63-.297,5.559.354,8.134,1.478,5.845,7.733,8.139,12.965,9.541l18.365,4.92-11.642,11.643h0ZM165.149,180.912c1.344,1.943,2.725,3.851,4.22,5.632.602.718,1.611,1.886,2.503,2.599,1.348-.318,3.717-1.638,4.576-2.134l10.56-6.098-10.56-6.098c-.859-.496-3.227-1.816-4.576-2.134-.892.713-1.901,1.881-2.503,2.599-1.495,1.781-2.876,3.69-4.22,5.632h0ZM210.493,167.351v31.911l12.975,12.976,12.976,12.975h36.7l12.975-12.975,12.975-12.976v-36.7l-12.975-12.975-12.975-12.975h-36.7l-12.976,12.975-12.975,12.975v4.789h0ZM206.862,228.843l-11.778,3.155c-.958.257-3.567.999-4.745,1.727-.127,1.135-.014,2.673.068,3.608.202,2.316.575,4.643.999,6.966,2.324.424,4.65.797,6.966.999.935.082,2.473.194,3.608.068.728-1.178,1.47-3.787,1.727-4.745l3.155-11.778h0ZM254.793,248.697l-6.098,10.56c-.496.859-1.815,3.227-2.134,4.576.713.892,1.881,1.901,2.599,2.503,1.781,1.495,3.69,2.876,5.633,4.22,1.943-1.344,3.851-2.725,5.632-4.22.718-.602,1.886-1.611,2.599-2.503-.318-1.348-1.638-3.717-2.134-4.576l-6.098-10.56h0ZM302.724,228.843l3.155,11.778c.257.958.999,3.567,1.727,4.745,1.135.127,2.673.014,3.608-.068,2.316-.202,4.643-.575,6.967-.999.424-2.324.796-4.65.999-6.966.082-.935.195-2.473.068-3.608-1.178-.728-3.787-1.47-4.745-1.727l-11.778-3.155h0ZM322.578,180.912l10.56,6.098c.859.496,3.227,1.815,4.576,2.134.892-.713,1.901-1.881,2.503-2.599,1.495-1.781,2.876-3.69,4.22-5.632-1.344-1.943-2.725-3.852-4.22-5.632-.603-.718-1.611-1.886-2.503-2.599-1.348.318-3.717,1.638-4.576,2.134l-10.56,6.098h0ZM302.724,132.981l11.778-3.155c.958-.257,3.567-.999,4.745-1.727.127-1.135.014-2.673-.068-3.608-.202-2.316-.575-4.643-.999-6.967-2.324-.424-4.65-.796-6.967-.999-.935-.082-2.473-.195-3.608-.068-.728,1.178-1.47,3.787-1.727,4.745l-3.155,11.778h0ZM254.793,113.127l6.098-10.56c.496-.859,1.815-3.227,2.134-4.576-.713-.892-1.881-1.901-2.599-2.503-1.781-1.495-3.69-2.876-5.632-4.22-1.943,1.344-3.851,2.725-5.633,4.22-.718.603-1.886,1.611-2.599,2.503.318,1.348,1.638,3.717,2.134,4.576l6.098,10.56h0ZM206.862,132.981l-3.155-11.778c-.257-.958-.999-3.567-1.727-4.745-1.135-.127-2.673-.014-3.608.068-2.316.203-4.643.575-6.966.999-.424,2.324-.797,4.65-.999,6.967-.082.935-.195,2.473-.068,3.608,1.178.728,3.787,1.47,4.745,1.727l11.778,3.155h0Z" fill="#d8ac6b" fill-rule="evenodd"/>
        <path d="M166.239,144.232c-1.648-2.436-2.923-5.23-3.733-8.435-1.139-4.506-1.214-9.209-.811-13.816.285-3.266.812-6.501,1.4-9.724.519-2.847,1.101-5.685,1.536-8.546.354-2.326.795-5.498.197-7.813l-1.724-6.675,6.675,1.724c2.315.598,5.487.157,7.813-.197,2.861-.435,5.699-1.017,8.546-1.537,3.223-.588,6.459-1.115,9.724-1.4,4.608-.403,9.31-.328,13.816.811,3.204.81,5.998,2.085,8.435,3.733.557-2.888,1.631-5.766,3.324-8.604,2.382-3.995,5.651-7.368,9.196-10.343,2.511-2.107,5.171-4.023,7.866-5.886,2.38-1.646,4.798-3.241,7.129-4.957,1.895-1.395,4.45-3.325,5.664-5.385l3.5-5.939,3.5,5.939c1.214,2.06,3.769,3.991,5.664,5.385,2.331,1.715,4.749,3.311,7.129,4.957,2.695,1.863,5.355,3.778,7.866,5.886,3.545,2.975,6.813,6.349,9.196,10.343,1.693,2.839,2.767,5.716,3.324,8.604,2.436-1.648,5.23-2.923,8.435-3.733,4.506-1.139,9.209-1.214,13.816-.811,3.265.285,6.501.812,9.724,1.4,2.847.52,5.685,1.101,8.546,1.537,2.327.354,5.498.795,7.813.197l6.675-1.724-1.724,6.675c-.598,2.315-.157,5.487.197,7.813.435,2.861,1.017,5.699,1.536,8.546.588,3.223,1.115,6.459,1.4,9.724.403,4.608.328,9.31-.811,13.816-.81,3.204-2.085,5.998-3.733,8.435,2.888.557,5.766,1.631,8.604,3.324,3.995,2.382,7.368,5.65,10.343,9.196,2.107,2.511,4.023,5.171,5.886,7.866,1.645,2.38,3.241,4.798,4.957,7.129,1.395,1.895,3.325,4.45,5.385,5.664l5.939,3.5-5.939,3.5c-2.06,1.214-3.991,3.769-5.385,5.664-1.715,2.331-3.311,4.749-4.957,7.129-1.863,2.695-3.779,5.355-5.886,7.866-2.975,3.545-6.349,6.814-10.343,9.196-2.839,1.693-5.716,2.767-8.604,3.324,1.648,2.437,2.923,5.23,3.733,8.435,1.139,4.506,1.214,9.209.811,13.816-.285,3.265-.812,6.501-1.4,9.724-.519,2.847-1.101,5.685-1.536,8.546-.354,2.327-.795,5.498-.197,7.813l1.724,6.675-6.675-1.724c-2.315-.598-5.487-.157-7.813.197-2.861.435-5.699,1.017-8.546,1.536-3.223.588-6.459,1.115-9.724,1.4-4.608.403-9.31.328-13.816-.811-3.204-.81-5.998-2.085-8.435-3.733-.557,2.888-1.631,5.766-3.324,8.604-2.382,3.995-5.651,7.368-9.196,10.343-2.511,2.107-5.171,4.023-7.866,5.886-2.38,1.646-4.798,3.241-7.129,4.957-1.895,1.395-4.45,3.325-5.664,5.385l-3.5,5.939-3.5-5.939c-1.214-2.06-3.769-3.991-5.664-5.385-2.331-1.715-4.749-3.311-7.129-4.957-2.695-1.863-5.355-3.779-7.866-5.886-3.545-2.975-6.814-6.349-9.196-10.343-1.693-2.839-2.767-5.716-3.324-8.604-2.436,1.648-5.23,2.923-8.435,3.733-4.506,1.139-9.209,1.214-13.816.811-3.265-.285-6.501-.812-9.724-1.4-2.847-.519-5.685-1.101-8.546-1.536-2.327-.354-5.498-.795-7.813-.197l-6.675,1.724,1.724-6.675c.598-2.315.157-5.487-.197-7.813-.435-2.861-1.017-5.699-1.536-8.546-.588-3.223-1.115-6.459-1.4-9.724-.403-4.608-.328-9.31.811-13.816.81-3.204,2.085-5.998,3.733-8.435-2.888-.557-5.765-1.631-8.604-3.324-3.995-2.382-7.368-5.651-10.343-9.196-2.107-2.511-4.023-5.171-5.886-7.866-1.646-2.38-3.241-4.798-4.957-7.129-1.395-1.895-3.325-4.45-5.385-5.664l-5.939-3.5,5.939-3.5c2.06-1.214,3.991-3.769,5.385-5.664,1.715-2.331,3.311-4.749,4.957-7.129,1.863-2.695,3.779-5.355,5.886-7.866,2.975-3.545,6.349-6.814,10.343-9.196,2.839-1.693,5.716-2.767,8.604-3.324h0ZM192.315,155.033v7.953l-6.776-3.913c-6.971-4.025-14.948-6.85-22.452-2.375-2.937,1.752-5.455,4.291-7.642,6.897-3.813,4.544-6.909,9.687-10.423,14.462-.715.972-1.448,1.93-2.219,2.856.771.926,1.504,1.884,2.219,2.856,3.514,4.775,6.61,9.918,10.423,14.462,2.186,2.606,4.705,5.145,7.642,6.897,7.504,4.475,15.481,1.65,22.452-2.375l6.776-3.913v7.953l5.623,5.623-7.558,2.025c-7.775,2.083-15.414,5.726-17.555,14.197-.839,3.318-.823,6.89-.527,10.28.517,5.909,1.964,11.735,2.856,17.596.182,1.193.341,2.389.45,3.589,1.2.109,2.396.269,3.589.45,5.861.892,11.687,2.339,17.596,2.856,3.39.296,6.962.312,10.28-.527,8.47-2.142,12.114-9.78,14.197-17.555l2.025-7.558,5.623,5.623h7.953l-3.913,6.776c-4.025,6.971-6.85,14.948-2.375,22.452,1.752,2.937,4.291,5.455,6.897,7.642,4.544,3.813,9.687,6.909,14.462,10.423.972.715,1.93,1.448,2.856,2.219.926-.771,1.884-1.504,2.856-2.219,4.775-3.514,9.918-6.61,14.462-10.423,2.606-2.186,5.145-4.705,6.897-7.642,4.475-7.504,1.65-15.481-2.375-22.452l-3.913-6.776h7.953l5.623-5.623,2.025,7.558c2.083,7.775,5.727,15.414,14.197,17.555,3.318.839,6.89.823,10.28.527,5.909-.517,11.735-1.964,17.596-2.856,1.193-.182,2.389-.341,3.589-.45.109-1.2.268-2.396.45-3.589.892-5.861,2.339-11.687,2.856-17.596.296-3.39.312-6.962-.527-10.28-2.142-8.47-9.78-12.114-17.555-14.197l-7.558-2.025,5.623-5.623v-7.953l6.776,3.913c6.971,4.025,14.948,6.85,22.452,2.375,2.937-1.752,5.455-4.291,7.642-6.897,3.813-4.544,6.909-9.687,10.423-14.462.715-.972,1.448-1.93,2.219-2.856-.771-.926-1.504-1.884-2.219-2.856-3.514-4.775-6.61-9.918-10.423-14.462-2.186-2.606-4.705-5.145-7.642-6.897-7.504-4.475-15.481-1.65-22.452,2.375l-6.776,3.913v-7.953l-5.623-5.623,7.558-2.025c7.775-2.083,15.414-5.727,17.555-14.197.839-3.318.823-6.89.527-10.28-.517-5.909-1.964-11.735-2.856-17.596-.182-1.193-.341-2.389-.45-3.589-1.2-.109-2.396-.269-3.589-.45-5.861-.892-11.687-2.339-17.596-2.856-3.39-.296-6.962-.312-10.28.527-8.47,2.142-12.114,9.78-14.197,17.555l-2.025,7.558-5.623-5.623h-7.953l3.913-6.776c4.025-6.971,6.85-14.948,2.375-22.452-1.752-2.937-4.291-5.455-6.897-7.642-4.544-3.813-9.687-6.909-14.462-10.423-.972-.715-1.93-1.448-2.856-2.219-.926.771-1.884,1.504-2.856,2.219-4.775,3.514-9.919,6.61-14.462,10.423-2.606,2.186-5.145,4.705-6.897,7.642-4.475,7.504-1.65,15.481,2.375,22.452l3.913,6.776h-7.953l-5.623,5.623-2.025-7.558c-2.083-7.775-5.726-15.414-14.197-17.555-3.318-.839-6.89-.823-10.28-.527-5.909.517-11.735,1.964-17.596,2.856-1.193.182-2.389.341-3.589.45-.109,1.2-.269,2.395-.45,3.589-.892,5.861-2.339,11.687-2.856,17.596-.296,3.39-.312,6.962.527,10.28,2.142,8.47,9.78,12.114,17.555,14.197l7.558,2.025-5.623,5.623h0Z" fill="#0e526e" fill-rule="evenodd"/>
        <path d="M221.555,101.547h3.462l-.469-.813c-5.753-9.965-9.12-21.082-2.798-31.684,2.378-3.987,5.735-7.376,9.272-10.344,5.525-4.637,11.696-8.357,17.492-12.622,1.849-1.361,3.671-2.784,5.319-4.386l.96-.933.96.933c1.648,1.602,3.47,3.025,5.319,4.386,5.796,4.265,11.967,7.986,17.492,12.622,3.538,2.969,6.895,6.357,9.272,10.344,6.323,10.602,2.956,21.719-2.798,31.684l-.469.813h3.462c6.096-10.824,9.143-22.7,2.383-34.035-2.552-4.28-6.123-7.919-9.921-11.107-2.878-2.415-5.934-4.611-9.023-6.746-2.876-1.988-5.804-3.923-8.62-5.995-2.673-1.967-6.161-4.646-8.058-7.866-1.898,3.22-5.385,5.898-8.058,7.866-2.816,2.072-5.743,4.006-8.62,5.995-3.089,2.135-6.145,4.331-9.023,6.746-3.798,3.187-7.369,6.827-9.921,11.107-6.76,11.335-3.713,23.211,2.383,34.035h0Z" fill="#0e526e" fill-rule="evenodd"/>
        <path d="M287.41,101.29l2.448,2.448.243-.907c2.978-11.115,8.458-21.356,20.426-24.382,4.501-1.138,9.271-1.16,13.871-.758,7.185.628,14.179,2.361,21.294,3.443,2.269.345,4.565.627,6.862.659l1.338.019.019,1.338c.033,2.298.314,4.593.659,6.862,1.082,7.114,2.815,14.109,3.443,21.294.402,4.601.38,9.37-.758,13.871-3.026,11.968-13.267,17.447-24.382,20.426l-.907.243,2.448,2.448c11.965-3.343,22.517-9.586,25.752-22.381,1.221-4.831,1.27-9.93.838-14.869-.327-3.743-.936-7.456-1.61-11.15-.628-3.44-1.33-6.878-1.856-10.334-.499-3.282-1.071-7.642-.136-11.26-3.618.935-7.978.363-11.26-.136-3.457-.526-6.894-1.228-10.334-1.856-3.694-.674-7.407-1.283-11.15-1.61-4.939-.432-10.038-.383-14.869.838-12.795,3.235-19.038,13.787-22.381,25.752h0Z" fill="#0e526e" fill-rule="evenodd"/>
        <path d="M334.158,147.674v3.462l.813-.469c9.965-5.753,21.082-9.12,31.684-2.798,3.987,2.378,7.376,5.735,10.344,9.272,4.637,5.525,8.357,11.696,12.622,17.492,1.361,1.849,2.784,3.671,4.386,5.319l.933.96-.933.96c-1.602,1.648-3.025,3.47-4.386,5.319-4.265,5.796-7.986,11.967-12.622,17.492-2.969,3.538-6.357,6.895-10.344,9.272-10.602,6.323-21.719,2.956-31.684-2.798l-.813-.469v3.462c10.824,6.096,22.7,9.143,34.035,2.383,4.28-2.552,7.919-6.123,11.107-9.921,2.415-2.878,4.611-5.934,6.746-9.023,1.988-2.876,3.923-5.804,5.995-8.62,1.967-2.673,4.646-6.161,7.866-8.058-3.22-1.898-5.898-5.385-7.866-8.058-2.072-2.816-4.006-5.743-5.995-8.62-2.135-3.089-4.331-6.145-6.746-9.023-3.187-3.798-6.827-7.369-11.107-9.921-11.335-6.76-23.211-3.713-34.035,2.383h0Z" fill="#0e526e" fill-rule="evenodd"/>
        <path d="M334.416,213.529l-2.448,2.448.907.243c11.115,2.978,21.356,8.458,24.382,20.426,1.138,4.501,1.16,9.271.758,13.871-.628,7.185-2.361,14.18-3.443,21.294-.345,2.269-.627,4.565-.659,6.862l-.019,1.338-1.338.019c-2.298.033-4.593.314-6.862.659-7.114,1.082-14.109,2.815-21.294,3.443-4.601.402-9.371.38-13.871-.758-11.968-3.026-17.447-13.267-20.426-24.382l-.243-.906-2.448,2.448c3.343,11.965,9.586,22.517,22.381,25.752,4.831,1.221,9.93,1.27,14.869.838,3.743-.327,7.456-.936,11.15-1.61,3.44-.628,6.878-1.33,10.334-1.856,3.281-.499,7.642-1.071,11.26-.136-.935-3.618-.363-7.978.136-11.26.526-3.457,1.228-6.894,1.856-10.334.674-3.694,1.283-7.407,1.61-11.15.432-4.939.383-10.038-.838-14.869-3.235-12.795-13.787-19.038-25.752-22.381h0Z" fill="#0e526e" fill-rule="evenodd"/>
        <path d="M288.031,260.277h-3.462l.469.813c5.753,9.965,9.12,21.082,2.798,31.684-2.378,3.987-5.735,7.376-9.272,10.344-5.525,4.637-11.696,8.357-17.492,12.622-1.849,1.361-3.671,2.784-5.319,4.386l-.96.933-.96-.933c-1.648-1.602-3.47-3.025-5.319-4.386-5.796-4.265-11.967-7.986-17.492-12.622-3.538-2.969-6.895-6.357-9.272-10.344-6.323-10.602-2.956-21.719,2.798-31.684l.469-.813h-3.462c-6.096,10.824-9.143,22.7-2.383,34.035,2.552,4.28,6.123,7.919,9.921,11.107,2.878,2.415,5.934,4.611,9.023,6.746,2.876,1.988,5.804,3.923,8.62,5.995,2.673,1.967,6.161,4.646,8.058,7.866,1.898-3.22,5.385-5.898,8.058-7.866,2.816-2.072,5.743-4.006,8.62-5.995,3.089-2.135,6.145-4.331,9.023-6.746,3.798-3.187,7.369-6.827,9.921-11.107,6.76-11.335,3.713-23.211-2.383-34.035h0Z" fill="#0e526e" fill-rule="evenodd"/>
        <path d="M222.177,260.535l-2.448-2.448-.243.906c-2.978,11.115-8.458,21.357-20.426,24.382-4.501,1.138-9.271,1.16-13.871.758-7.185-.628-14.18-2.361-21.294-3.443-2.269-.345-4.564-.627-6.862-.659l-1.338-.019-.019-1.338c-.033-2.298-.314-4.593-.659-6.862-1.082-7.114-2.815-14.109-3.443-21.294-.402-4.601-.38-9.37.758-13.871,3.026-11.968,13.267-17.447,24.382-20.426l.906-.243-2.448-2.448c-11.965,3.343-22.517,9.586-25.752,22.381-1.221,4.831-1.27,9.93-.838,14.869.327,3.743.936,7.456,1.61,11.15.628,3.44,1.33,6.878,1.856,10.334.499,3.282,1.071,7.642.136,11.26,3.618-.935,7.978-.363,11.26.136,3.457.526,6.894,1.228,10.334,1.856,3.694.674,7.407,1.283,11.15,1.61,4.939.432,10.038.383,14.869-.838,12.795-3.235,19.038-13.787,22.381-25.752h0Z" fill="#0e526e" fill-rule="evenodd"/>
        <path d="M175.428,214.15v-3.462l-.813.469c-9.965,5.753-21.082,9.12-31.684,2.798-3.987-2.378-7.376-5.735-10.344-9.272-4.637-5.525-8.357-11.696-12.622-17.492-1.361-1.849-2.784-3.671-4.386-5.319l-.933-.96.933-.96c1.602-1.648,3.025-3.47,4.386-5.319,4.265-5.796,7.986-11.967,12.622-17.492,2.969-3.538,6.357-6.895,10.344-9.272,10.602-6.323,21.719-2.956,31.684,2.798l.813.469v-3.462c-10.824-6.096-22.7-9.143-34.035-2.383-4.28,2.552-7.919,6.123-11.107,9.921-2.415,2.878-4.611,5.934-6.746,9.023-1.988,2.876-3.923,5.804-5.995,8.62-1.967,2.673-4.646,6.161-7.866,8.058,3.22,1.898,5.898,5.385,7.866,8.058,2.072,2.816,4.006,5.743,5.995,8.62,2.135,3.088,4.331,6.145,6.746,9.023,3.187,3.798,6.827,7.369,11.107,9.921,11.335,6.76,23.211,3.713,34.035-2.383h0Z" fill="#0e526e" fill-rule="evenodd"/>
        <path d="M175.171,148.296l2.448-2.448-.906-.243c-11.115-2.978-21.357-8.458-24.382-20.426-1.138-4.501-1.16-9.271-.758-13.871.628-7.185,2.361-14.179,3.443-21.294.345-2.269.627-4.565.659-6.862l.019-1.338,1.338-.019c2.298-.033,4.593-.314,6.862-.659,7.114-1.082,14.109-2.815,21.294-3.443,4.601-.402,9.37-.38,13.871.758,11.968,3.026,17.447,13.267,20.426,24.382l.243.907,2.448-2.448c-3.343-11.965-9.586-22.517-22.381-25.752-4.831-1.221-9.93-1.27-14.869-.838-3.743.327-7.456.936-11.15,1.61-3.44.628-6.877,1.33-10.334,1.856-3.282.499-7.642,1.071-11.26.136.935,3.618.363,7.978-.136,11.26-.526,3.457-1.228,6.894-1.856,10.334-.674,3.694-1.283,7.407-1.61,11.15-.432,4.939-.383,10.038.838,14.869,3.235,12.795,13.787,19.038,25.752,22.381h0Z" fill="#0e526e" fill-rule="evenodd"/>
      </g>
      <path d="M425.617,384.602c-34.305-20.249-102.267-28.862-158.447-5.526,50.862-38.1,118.304-20.812,119.951-20.645l-18.497-41.478,32.303,8.342,24.691,59.308Z" fill="#0e526e" fill-rule="evenodd"/>
      <g>
        <path d="M29.155,492.667H10.617c-1.073,3.365-3.119,5.933-6.135,7.702l-4.482-2.567c2.088-.581,3.8-1.733,5.135-3.459,1.334-1.727,2.001-3.691,2.001-5.896v-.044h.043v-8.398c0-1.363.485-2.538,1.458-3.524.971-.986,2.154-1.479,3.546-1.479h1.74c3.568.059,6.643,1.306,9.226,3.742,2.582,2.437,4.032,5.425,4.351,8.964v.174c0,.059.007.16.022.305.014.146.021.247.021.305h1.61v4.178ZM11.357,488.489h10.749c.696,0,1.102-.275,1.218-.826-.319-2.35-1.364-4.337-3.133-5.962-1.77-1.624-3.844-2.465-6.222-2.523-1.741.029-2.611.957-2.611,2.784v6.527Z" fill="#0e526e"/>
        <path d="M37.771,492.667h-9.53v-4.178h6.31c.841,0,1.262-.405,1.262-1.218v-12.315h4.178v15.491c0,.609-.218,1.132-.653,1.567-.435.435-.958.652-1.566.652ZM32.245,498.933c-.552,0-1.009-.182-1.371-.544-.363-.363-.544-.82-.544-1.371,0-.522.181-.965.544-1.327.362-.363.819-.544,1.371-.544.522,0,.964.181,1.327.544s.544.805.544,1.327c0,.551-.182,1.008-.544,1.371-.363.362-.805.544-1.327.544ZM38.38,497.018c0,.551-.189,1.008-.565,1.371-.377.362-.827.544-1.349.544s-.965-.182-1.327-.544-.544-.82-.544-1.371c0-.522.181-.965.544-1.327.362-.363.805-.544,1.327-.544s.972.181,1.349.544c.376.362.565.805.565,1.327Z" fill="#0e526e"/>
        <path d="M58.789,492.667h-3.307c-.812,0-1.582-.202-2.306-.609-.668,1.856-1.675,3.496-3.024,4.917s-2.923,2.509-4.721,3.264l-5.353-3.089v-.044c2.698,0,4.989-.95,6.875-2.851,1.885-1.899,2.828-4.184,2.828-6.854v-12.488h4.178v10.922c.028,1.771.972,2.654,2.828,2.654h2.002v4.178Z" fill="#0e526e"/>
        <path d="M85.376,492.667h-27.458v-4.178h21.409v-.609c0-1.855-.929-2.784-2.785-2.784h-12.01v-4.178h.043c.203-3.655,1.639-6.752,4.308-9.29s5.846-3.808,9.53-3.808h.043v4.177h-.043c-2.523,0-4.714.856-6.571,2.567-1.856,1.713-2.887,3.83-3.089,6.354h9.748c1.392,0,2.574.493,3.546,1.479.972.986,1.458,2.161,1.458,3.524v2.567h1.871v4.178Z" fill="#0e526e"/>
        <path d="M93.122,492.667h-8.268v-4.178h5.091c.841,0,1.262-.405,1.262-1.218v-19.582h4.134v22.758c0,.609-.217,1.132-.653,1.567-.435.435-.957.652-1.566.652Z" fill="#0e526e"/>
        <path d="M103.914,492.667h-4.134v-24.804h4.134v24.804Z" fill="#0e526e"/>
        <path d="M132.894,500.282h-2.219c-3.742-.029-6.948-1.349-9.617-3.96-2.669-2.611-4.062-5.772-4.177-9.486v-3.698c0-.639.217-1.176.652-1.61.436-.436.958-.653,1.567-.653h5.265v.044c1.305,0,2.335.349,3.089,1.044.754.696,1.175,1.393,1.262,2.089l.174,1.001h-6.571c-.841,0-1.262.421-1.262,1.262v.131c0,2.641.958,4.903,2.872,6.788,1.915,1.886,4.206,2.857,6.875,2.916h.131c1.856,0,2.785-.943,2.785-2.829v-18.363h4.178v20.365c0,1.363-.494,2.531-1.479,3.503-.987.972-2.162,1.458-3.525,1.458ZM127.716,471.562c0,.522-.189.965-.565,1.327-.377.363-.827.544-1.349.544s-.972-.181-1.349-.544c-.377-.362-.565-.805-.565-1.327,0-.551.188-1.008.565-1.371.377-.362.827-.544,1.349-.544s.972.182,1.349.544c.376.363.565.82.565,1.371Z" fill="#0e526e"/>
        <path d="M149.169,469.778h-9.791v-1.871h9.791v1.871ZM146.515,492.667h-4.09v-21.235h4.09v21.235Z" fill="#0e526e"/>
        <path d="M166.14,492.667h-3.307c-.812,0-1.582-.202-2.306-.609-.668,1.856-1.675,3.496-3.024,4.917s-2.923,2.509-4.721,3.264l-5.353-3.089v-.044c2.698,0,4.989-.95,6.875-2.851,1.885-1.899,2.828-4.184,2.828-6.854v-12.488h4.178v10.922c.028,1.771.972,2.654,2.828,2.654h2.002v4.178Z" fill="#0e526e"/>
        <path d="M194.903,492.667h-29.633v-4.178h6.527c.029-.145.043-.348.043-.609v-.174c.319-3.539,1.777-6.527,4.374-8.964,2.596-2.437,5.679-3.684,9.247-3.742h1.74c1.363,0,2.531.486,3.503,1.458.972.972,1.458,2.153,1.458,3.546v8.485h2.741v4.178ZM188.028,487.227v-5.266c0-1.827-.871-2.755-2.611-2.784-2.408.059-4.497.899-6.266,2.523-1.77,1.625-2.8,3.612-3.089,5.962.087.551.493.826,1.218.826h9.486c.841,0,1.262-.42,1.262-1.262ZM181.892,471.997c-.551,0-1.008-.181-1.371-.544-.363-.362-.544-.819-.544-1.37,0-.522.181-.964.544-1.327s.819-.544,1.371-.544c.522,0,.964.182,1.327.544.362.363.544.805.544,1.327,0,.551-.182,1.008-.544,1.37s-.805.544-1.327.544ZM188.028,470.083c0,.551-.189,1.008-.566,1.37-.377.363-.827.544-1.349.544s-.965-.181-1.327-.544c-.363-.362-.544-.819-.544-1.37,0-.522.181-.964.544-1.327.362-.362.805-.544,1.327-.544s.972.182,1.349.544c.376.363.566.805.566,1.327Z" fill="#0e526e"/>
        <path d="M207.043,492.667h-12.663v-4.178h5.091c.841,0,1.262-.405,1.262-1.218v-19.582h4.134v20.8h2.176v4.178Z" fill="#0e526e"/>
        <path d="M214.746,492.667h-8.268v-4.178h5.091c.841,0,1.262-.405,1.262-1.218v-19.582h4.134v22.758c0,.609-.217,1.132-.653,1.567-.435.435-.957.652-1.566.652Z" fill="#0e526e"/>
        <path d="M254.605,492.667h-2.785c-.783,0-1.523-.188-2.219-.565-.435.377-.929.565-1.479.565h-15.839c-.609,0-1.131-.218-1.567-.652-.435-.436-.652-.958-.652-1.567v-2.784c.319-3.51,1.762-6.477,4.33-8.899,2.567-2.422,5.62-3.677,9.16-3.764h1.349c.638,0,1.276.116,1.915.348v-.435h3.568v10.748c0,1.886.942,2.828,2.829,2.828h1.392v4.178ZM246.12,487.793v-5.831c0-1.798-.856-2.741-2.567-2.828-2.379.087-4.446.936-6.201,2.546-1.755,1.61-2.792,3.59-3.111,5.939.116.581.522.87,1.218.87h9.486c.667,0,1.059-.231,1.175-.696ZM239.767,471.997c-.551,0-1.008-.181-1.371-.544-.363-.362-.544-.819-.544-1.37,0-.522.181-.964.544-1.327s.819-.544,1.371-.544c.522,0,.964.182,1.327.544.362.363.544.805.544,1.327,0,.551-.182,1.008-.544,1.37-.363.363-.805.544-1.327.544ZM245.902,470.083c0,.551-.189,1.008-.566,1.37-.377.363-.827.544-1.349.544s-.964-.181-1.327-.544c-.363-.362-.544-.819-.544-1.37,0-.522.181-.964.544-1.327.363-.362.805-.544,1.327-.544s.972.182,1.349.544c.377.363.566.805.566,1.327Z" fill="#0e526e"/>
        <path d="M268.748,492.667h-15.013v-4.178h6.31c.84,0,1.262-.405,1.262-1.218v-12.315h4.178v13.533h3.264v4.178ZM258.783,498.933c-.553,0-1.01-.182-1.371-.544-.363-.363-.545-.82-.545-1.371,0-.522.182-.965.545-1.327.361-.363.818-.544,1.371-.544.521,0,.963.181,1.326.544.363.362.545.805.545,1.327,0,.551-.182,1.008-.545,1.371-.363.362-.805.544-1.326.544ZM264.918,497.018c0,.551-.189,1.008-.566,1.371-.377.362-.826.544-1.348.544s-.965-.182-1.328-.544c-.363-.363-.543-.82-.543-1.371,0-.522.18-.965.543-1.327.363-.363.805-.544,1.328-.544s.971.181,1.348.544c.377.362.566.805.566,1.327Z" fill="#0e526e"/>
        <path d="M277.363,492.667h-9.529v-4.178h6.31c.841,0,1.262-.405,1.262-1.218v-12.315h4.178v15.491c0,.609-.218,1.132-.653,1.567s-.957.652-1.566.652ZM278.713,471.432c-.349.378-.783.565-1.306.565s-.973-.188-1.35-.565c-.377-.377-.565-.826-.565-1.349s.188-.972.565-1.35c.377-.376.827-.565,1.35-.565s.964.189,1.327.565c.362.378.544.827.544,1.35s-.189.972-.565,1.349Z" fill="#0e526e"/>
        <path d="M292.637,492.667h-6.396c-.639,0-1.175-.218-1.61-.652-.435-.436-.652-.958-.652-1.567v-22.671h4.177v19.451c0,.842.421,1.262,1.263,1.262h3.22v4.178Z" fill="#0e526e"/>
        <path d="M320.922,492.667h-1.523c-.667,0-1.363-.145-2.088-.436-.116.755-.334,1.494-.653,2.22h-.043c-.204.464-.537.819-1.001,1.066-.465.246-.958.312-1.479.195l-13.011-2.785v-1.305c-.436.696-1.074,1.044-1.915,1.044h-7.137v-4.178h3.917c.812,0,1.232-.362,1.262-1.088v-7.397c0-1.363.493-2.538,1.479-3.524.985-.986,2.16-1.479,3.524-1.479h1.74c3.539.029,6.607,1.233,9.204,3.611,2.596,2.38,4.083,5.31,4.46,8.79.377.726,1.189,1.088,2.437,1.088h.827v4.178ZM301.428,488.751l10.443,2.219c.812.174,1.305-.145,1.479-.957l.218-1.132c0-2.639-.922-4.902-2.764-6.788-1.843-1.886-4.084-2.856-6.723-2.915-1.771.029-2.654.957-2.654,2.784v6.789Z" fill="#0e526e"/>
        <path d="M328.624,492.667h-8.268v-4.178h5.091c.842,0,1.262-.405,1.262-1.218v-19.582h4.135v22.758c0,.609-.218,1.132-.653,1.567s-.957.652-1.566.652Z" fill="#0e526e"/>
        <path d="M346.813,492.667h-10.574l-.957-4.178h3.307c-1.422-2.146-2.176-4.539-2.263-7.18v-8.616h4.178v8.181c0,3.104,1.203,5.629,3.611,7.572.522-.146.783-.551.783-1.219v-19.32h4.134v22.54c0,.609-.217,1.132-.652,1.567s-.957.652-1.566.652ZM339.416,472.041h-3.046v-.652h2.785c.405,0,.608-.175.608-.522v-.044c0-.318-.203-.479-.608-.479h-1.784c-.291,0-.537-.094-.74-.282s-.305-.414-.305-.675v-.392c0-.262.102-.485.305-.675.203-.188.449-.282.74-.282h3.046v.608h-2.829c-.377,0-.565.175-.565.522s.188.522.565.522h1.828c.29,0,.536.095.739.282.203.189.305.429.305.719v.392c0,.261-.102.485-.305.674-.203.189-.449.283-.739.283Z" fill="#0e526e"/>
        <path d="M357.604,492.667h-4.134v-24.804h4.134v24.804Z" fill="#0e526e"/>
        <path d="M387.586,492.667h-14.795c-.609,0-1.131-.218-1.566-.652-.435-.436-.652-.958-.652-1.567v-10.53c0-1.363.493-2.53,1.479-3.503.985-.972,2.16-1.458,3.524-1.458h6.223c1.77,0,3.061.668,3.873,2.002v-2.089h4.134v15.578c0,.609-.218,1.132-.652,1.567-.436.435-.958.652-1.567.652ZM385.672,487.227v-8.137h-8.094c-1.887,0-2.829.942-2.829,2.828v5.309c0,.842.421,1.262,1.263,1.262h8.398c.841,0,1.262-.42,1.262-1.262ZM378.144,471.997c-.552,0-1.008-.181-1.371-.544s-.544-.819-.544-1.37c0-.522.182-.964.544-1.327.363-.362.819-.544,1.371-.544.522,0,.964.182,1.327.544.362.363.544.805.544,1.327,0,.551-.182,1.008-.544,1.37s-.805.544-1.327.544ZM384.279,470.083c0,.551-.189,1.008-.565,1.37-.378.363-.827.544-1.35.544s-.965-.181-1.327-.544c-.363-.362-.544-.819-.544-1.37,0-.522.181-.964.544-1.327s.806-.544,1.327-.544.972.182,1.35.544c.376.363.565.805.565,1.327Z" fill="#0e526e"/>
        <path d="M397.29,471.823h-3.046v-.609h2.785c.406,0,.609-.188.609-.565v-.043c0-.319-.203-.479-.609-.479h-1.784c-.29,0-.537-.087-.739-.261-.203-.174-.305-.406-.305-.696v-.392c0-.261.102-.485.305-.675.202-.188.449-.282.739-.282h3.046v.652h-2.828c-.377,0-.565.174-.565.522s.188.522.565.522h1.827c.29,0,.537.087.74.261.202.174.305.421.305.739v.349c0,.29-.103.522-.305.696-.203.174-.45.261-.74.261ZM398.335,492.667h-4.134v-20.234h4.134v20.234Z" fill="#0e526e"/>
        <path d="M417.524,492.667h-3.307c-.812,0-1.582-.202-2.307-.609-.667,1.856-1.675,3.496-3.024,4.917-1.349,1.421-2.923,2.509-4.721,3.264l-5.353-3.089v-.044c2.698,0,4.989-.95,6.875-2.851,1.886-1.899,2.829-4.184,2.829-6.854v-12.488h4.177v10.922c.029,1.771.972,2.654,2.829,2.654h2.001v4.178Z" fill="#0e526e"/>
        <path d="M446.288,492.667h-29.634v-4.178h6.527c.028-.145.043-.348.043-.609v-.174c.319-3.539,1.777-6.527,4.373-8.964,2.597-2.437,5.679-3.684,9.247-3.742h1.741c1.363,0,2.53.486,3.503,1.458.972.972,1.457,2.153,1.457,3.546v8.485h2.742v4.178ZM439.412,487.227v-5.266c0-1.827-.87-2.755-2.61-2.784-2.408.059-4.497.899-6.267,2.523-1.77,1.625-2.8,3.612-3.09,5.962.088.551.493.826,1.219.826h9.486c.841,0,1.262-.42,1.262-1.262ZM433.276,471.997c-.551,0-1.008-.181-1.37-.544-.363-.362-.544-.819-.544-1.37,0-.522.181-.964.544-1.327s.819-.544,1.37-.544c.522,0,.965.182,1.327.544s.544.805.544,1.327c0,.551-.181,1.008-.544,1.37-.362.363-.805.544-1.327.544ZM439.412,470.083c0,.551-.188,1.008-.565,1.37-.377.363-.827.544-1.349.544s-.965-.181-1.327-.544c-.363-.362-.544-.819-.544-1.37,0-.522.181-.964.544-1.327s.805-.544,1.327-.544.972.182,1.349.544c.377.363.565.805.565,1.327Z" fill="#0e526e"/>
        <path d="M474.572,492.667h-1.523c-.667,0-1.363-.145-2.088-.436-.116.755-.334,1.494-.653,2.22h-.043c-.204.464-.537.819-1.001,1.066-.465.246-.958.312-1.479.195l-13.011-2.785v-1.305c-.436.696-1.074,1.044-1.915,1.044h-7.137v-4.178h3.917c.812,0,1.232-.362,1.262-1.088v-7.397c0-1.363.493-2.538,1.479-3.524.985-.986,2.16-1.479,3.524-1.479h1.74c3.539.029,6.607,1.233,9.204,3.611,2.596,2.38,4.083,5.31,4.46,8.79.377.726,1.189,1.088,2.437,1.088h.827v4.178ZM455.078,488.751l10.443,2.219c.812.174,1.305-.145,1.479-.957l.218-1.132c0-2.639-.922-4.902-2.764-6.788-1.843-1.886-4.084-2.856-6.723-2.915-1.771.029-2.654.957-2.654,2.784v6.789Z" fill="#0e526e"/>
        <path d="M482.274,492.667h-8.268v-4.178h5.091c.842,0,1.262-.405,1.262-1.218v-19.582h4.135v22.758c0,.609-.218,1.132-.653,1.567s-.957.652-1.566.652Z" fill="#0e526e"/>
        <path d="M493.066,492.667h-4.134v-24.804h4.134v24.804Z" fill="#0e526e"/>
      </g>
      <g>
        <path d="M13.23,520.225c3.852,0,6.714.45,8.585,1.349,1.871.899,3.155,2.531,3.852,4.897.696,2.366,1.045,6.026,1.045,10.979,0,4.917-.349,8.558-1.045,10.924-.697,2.366-1.981,3.999-3.852,4.897-1.871.899-4.733,1.349-8.585,1.349H.903v-34.395h12.327ZM6.407,550.053h10.07c1.614,0,2.733-.293,3.357-.881.624-.586.936-1.632.936-3.137v-17.225c0-1.504-.312-2.55-.936-3.137-.624-.587-1.743-.881-3.357-.881H6.407v25.26Z" fill="#d8ac6b"/>
        <path d="M40.746,550.053h15.133v4.567h-20.637v-34.395h20.472l-.66,4.567h-14.308v10.456h13.042v4.348h-13.042v10.456Z" fill="#d8ac6b"/>
        <path d="M67.931,554.51c-1.835-.623-3.109-1.714-3.825-3.274-.715-1.559-1.073-3.897-1.073-7.016v-23.994h5.503v30.542h7.924c2.054,0,3.595-.082,4.623-.247,1.027-.165,1.742-.449,2.146-.854.403-.403.605-1.008.605-1.815v-27.626h5.503v23.994c0,3.118-.358,5.457-1.073,7.016-.715,1.561-1.991,2.651-3.825,3.274-1.835.624-4.586.936-8.255.936s-6.42-.312-8.254-.936Z" fill="#d8ac6b"/>
        <path d="M109.149,554.62h-5.503v-29.827h-9.08v-4.567h23.663v4.567h-9.08v29.827Z" fill="#d8ac6b"/>
        <path d="M127.558,550.52c1.962.239,3.843.357,5.641.357,1.871,0,3.943-.11,6.218-.33v-10.235l-5.228-.386c-3.375-.256-5.907-.688-7.594-1.293-1.688-.605-2.871-1.56-3.549-2.861-.679-1.303-1.018-3.183-1.018-5.642,0-2.641.339-4.741,1.018-6.301.678-1.559,1.779-2.687,3.302-3.384,1.522-.697,3.568-1.046,6.136-1.046,3.705,0,7.41.349,11.116,1.046l-.715,4.347c-2.936-.55-6.292-.825-10.071-.825-1.871,0-3.467.092-4.788.275v10.346l6.108.385c2.935.185,5.209.615,6.824,1.294,1.614.679,2.76,1.725,3.439,3.137.678,1.412,1.018,3.366,1.018,5.86,0,2.568-.404,4.587-1.21,6.054-.808,1.468-2.128,2.522-3.962,3.164-1.835.642-4.348.963-7.54.963-3.889,0-7.594-.44-11.116-1.32l.826-4.513c1.467.367,3.182.67,5.146.908Z" fill="#d8ac6b"/>
        <path d="M168.968,555.115c-1.468.221-3.192.33-5.173.33-3.486,0-6.108-.522-7.87-1.568-1.761-1.045-2.991-2.824-3.687-5.338-.697-2.513-1.045-6.209-1.045-11.089,0-4.916.357-8.64,1.073-11.171.716-2.531,2-4.311,3.853-5.338,1.852-1.027,4.595-1.541,8.227-1.541,1.247,0,2.669.11,4.265.33,1.596.22,2.871.495,3.825.825l-.715,4.513c-1.285-.293-2.771-.531-4.458-.715-1.688-.184-3.063-.275-4.127-.275-2.238,0-3.807.275-4.705.825-.899.551-1.348,1.67-1.348,3.357v21.792c1.871.55,4.053.825,6.549.825,2.861,0,5.851-.458,8.97-1.376l.55,4.513c-1.32.515-2.715.881-4.182,1.101Z" fill="#d8ac6b"/>
        <path d="M204.793,520.225v34.395h-5.503v-14.858h-14.308v14.858h-5.503v-34.395h5.503v15.188h14.308v-15.188h5.503Z" fill="#d8ac6b"/>
        <path d="M220.202,550.053h15.133v4.567h-20.637v-34.395h20.472l-.66,4.567h-14.308v10.456h13.042v4.348h-13.042v10.456Z" fill="#d8ac6b"/>
        <path d="M258.283,520.225h7.595l7.649,25.755h.385l7.649-25.755h7.594l2.312,34.395h-5.448l-1.761-27.13h-.33l-7.979,27.13h-4.457l-7.979-27.13h-.331l-1.761,27.13h-5.448l2.312-34.395Z" fill="#d8ac6b"/>
        <path d="M317.332,546.916h-13.152l-2.257,7.704h-5.503l10.181-34.395h8.31l10.182,34.395h-5.504l-2.256-7.704ZM316.066,542.568l-5.063-17.279h-.495l-5.062,17.279h10.621Z" fill="#d8ac6b"/>
        <path d="M357.175,555.556l-1.376,3.026-9.521-3.137v-1.541l-3.137,1.541c-3.889,0-6.778-.468-8.667-1.403-1.891-.936-3.192-2.649-3.907-5.146-.716-2.494-1.073-6.31-1.073-11.446s.357-8.951,1.073-11.446c.715-2.494,2.017-4.219,3.907-5.173,1.889-.953,4.778-1.431,8.667-1.431,3.853,0,6.732.478,8.64,1.431,1.907.954,3.22,2.679,3.935,5.173.716,2.495,1.073,6.311,1.073,11.446,0,4.55-.294,7.989-.88,10.318-.588,2.33-1.596,4.027-3.027,5.091l4.293,2.696ZM346.278,550.767c1.725,0,2.917-.293,3.577-.88s.99-1.632.99-3.137v-22.673h-10.896c-1.688,0-2.862.294-3.522.88-.66.588-.99,1.633-.99,3.137v22.673h10.841Z" fill="#d8ac6b"/>
        <path d="M384.359,554.62l-5.723-12.162h-7.814v12.162h-5.503v-34.395h13.758c2.457,0,4.375.367,5.75,1.101,1.376.734,2.366,1.936,2.972,3.604.605,1.67.908,3.972.908,6.906,0,2.826-.357,5.036-1.073,6.632-.715,1.596-1.88,2.706-3.494,3.329l6.219,12.822h-5.999ZM370.822,538.11h8.31c1.431,0,2.421-.165,2.972-.495.55-.33.825-.936.825-1.815v-8.695c0-.881-.275-1.485-.825-1.815-.551-.331-1.541-.496-2.972-.496h-8.31v13.317Z" fill="#d8ac6b"/>
        <path d="M414.021,546.916h-13.152l-2.257,7.704h-5.503l10.181-34.395h8.31l10.182,34.395h-5.504l-2.256-7.704ZM412.756,542.568l-5.063-17.279h-.495l-5.062,17.279h10.621Z" fill="#d8ac6b"/>
        <path d="M426.514,529.471l1.101-4.952c-.845-.184-1.431-.532-1.761-1.046s-.495-1.376-.495-2.587c0-1.431.266-2.421.798-2.972.531-.55,1.494-.825,2.889-.825,1.284,0,2.183.275,2.696.825.514.551.771,1.541.771,2.972,0,.625-.102,1.285-.303,1.981-.202.697-.577,1.67-1.128,2.917l-2.091,4.457-2.477-.771Z" fill="#d8ac6b"/>
        <path d="M457.001,546.916h-13.152l-2.257,7.704h-5.503l10.181-34.395h8.31l10.182,34.395h-5.504l-2.256-7.704ZM455.735,542.568l-5.063-17.279h-.495l-5.062,17.279h10.621Z" fill="#d8ac6b"/>
        <path d="M495.852,520.225v34.395h-5.503v-14.858h-14.308v14.858h-5.503v-34.395h5.503v15.188h14.308v-15.188h5.503Z" fill="#d8ac6b"/>
      </g>
    </g>
  </g>
</svg>